<?xml version="1.0" standalone="no"?>
<!DOCTYPE svg PUBLIC "-//W3C//DTD SVG 20010904//EN"
 "http://www.w3.org/TR/2001/REC-SVG-20010904/DTD/svg10.dtd">
<svg version="1.0" xmlns="http://www.w3.org/2000/svg"
 width="337.000000pt" height="252.000000pt" viewBox="0 0 337.000000 252.000000"
 preserveAspectRatio="xMidYMid meet">

<g transform="translate(0.000000,252.000000) scale(0.100000,-0.100000)"
fill="#000000" stroke="none">
<path d="M2545 1590 c5 -30 -16 -179 -33 -235 -21 -67 -58 -135 -253 -470
-111 -192 -258 -447 -326 -565 l-123 -215 367 -3 c230 -1 379 2 397 8 16 5 41
10 55 10 54 0 233 74 294 122 39 30 147 136 147 143 0 2 13 17 28 33 43 46 97
156 126 257 70 242 -2 529 -179 710 -38 40 -85 80 -102 91 -18 10 -33 21 -33
25 0 4 -15 13 -32 20 -18 7 -39 19 -46 26 -7 7 -20 13 -28 13 -8 0 -13 4 -9 9
3 6 -4 8 -15 6 -11 -2 -26 3 -34 11 -8 8 -29 14 -46 14 -18 0 -29 4 -25 10 4
6 -20 10 -65 10 l-70 0 5 -30z"/>
</g>
</svg>
